<svg xmlns="http://www.w3.org/2000/svg" viewBox="0 0 1400 760">
<defs>
  <linearGradient id="bg" x1="0" y1="0" x2="1" y2="1"><stop offset="0" stop-color="#e9f7ef"/><stop offset="1" stop-color="#cfeee0"/></linearGradient>
  <linearGradient id="sky" x1="0" y1="0" x2="0" y2="1"><stop offset="0" stop-color="#dff5ff"/><stop offset="1" stop-color="#f8fcff"/></linearGradient>
</defs>
<rect width="1400" height="760" rx="34" fill="url(#bg)"/>
<rect x="0" y="0" width="1400" height="470" rx="34" fill="url(#sky)"/>
<circle cx="1180" cy="120" r="58" fill="#ffd76a" opacity=".9"/>
<path d="M0 475 Q260 395 520 470 T1050 455 T1400 465 V760 H0Z" fill="#b8d7b4"/>
<path d="M0 540 Q280 465 570 535 T1110 520 T1400 535 V760 H0Z" fill="#91bd8e"/>
<!-- factory -->
<rect x="105" y="340" width="330" height="180" rx="10" fill="#eef2f0" stroke="#5d7770" stroke-width="8"/>
<rect x="150" y="390" width="80" height="130" fill="#c8d6d1"/>
<rect x="260" y="385" width="125" height="135" fill="#dbe5e1"/>
<rect x="370" y="255" width="42" height="265" fill="#879b96"/>
<path d="M390 245 C365 210 420 195 395 160 C430 190 438 215 418 245" fill="#9bb6ad" opacity=".75"/>
<!-- monitoring chart panel -->
<rect x="760" y="95" width="520" height="330" rx="28" fill="white" stroke="#4f9b78" stroke-width="7"/>
<text x="820" y="155" font-family="Arial, sans-serif" font-size="38" font-weight="700" fill="#1f6f50">Environmental Monitoring</text>
<line x1="830" y1="350" x2="1220" y2="350" stroke="#9ab4aa" stroke-width="5"/>
<line x1="830" y1="190" x2="830" y2="350" stroke="#9ab4aa" stroke-width="5"/>
<polyline points="850,315 920,285 990,300 1060,245 1130,260 1200,205" fill="none" stroke="#2c9b68" stroke-width="9"/>
<circle cx="850" cy="315" r="9" fill="#2c9b68"/><circle cx="920" cy="285" r="9" fill="#2c9b68"/><circle cx="990" cy="300" r="9" fill="#2c9b68"/><circle cx="1060" cy="245" r="9" fill="#2c9b68"/><circle cx="1130" cy="260" r="9" fill="#2c9b68"/><circle cx="1200" cy="205" r="9" fill="#2c9b68"/>
<!-- clipboard -->
<rect x="520" y="155" width="185" height="260" rx="16" fill="white" stroke="#55766b" stroke-width="7"/>
<rect x="575" y="130" width="75" height="38" rx="12" fill="#55766b"/>
<line x1="555" y1="225" x2="675" y2="225" stroke="#70a48e" stroke-width="12"/>
<line x1="555" y1="270" x2="675" y2="270" stroke="#70a48e" stroke-width="12"/>
<line x1="555" y1="315" x2="650" y2="315" stroke="#70a48e" stroke-width="12"/>
<path d="M535 360 l22 22 40-50" fill="none" stroke="#2c9b68" stroke-width="13" stroke-linecap="round" stroke-linejoin="round"/>
<!-- monitoring well -->
<rect x="1175" y="515" width="82" height="135" rx="10" fill="#7a8d89"/>
<rect x="1160" y="495" width="112" height="32" rx="10" fill="#526762"/>
<circle cx="1216" cy="510" r="8" fill="#d6f2e2"/>
<path d="M1216 650 V730" stroke="#526762" stroke-width="12" stroke-dasharray="14 12"/>
<text x="1080" y="715" font-family="Arial, sans-serif" font-size="30" font-weight="700" fill="#36594e">ตรวจวัด • บันทึก • รายงาน</text>
</svg>
